M48
; #@! TF.GenerationSoftware,LibrePCB,LibrePCB,0.1.6
; #@! TF.CreationDate,2022-05-15T02:00:43
; #@! TF.ProjectId,ttgo_bob,bfd8dc32-b202-4bf0-b9b5-60a84d76451e,v1
; #@! TF.Part,Single
; #@! TF.SameCoordinates
; #@! TF.FileFunction,Plated,1,4,PTH
FMAT,2
METRIC,TZ
; #@! TA.AperFunction,ViaDrill
T1C0.3
; #@! TA.AperFunction,ComponentDrill
T2C1.1
%
G90
G05
M71
T1
X16.51Y38.608
X7.6Y4.8
X18.0Y10.0
X9.6Y14.8
X10.0Y18.8
X3.6Y18.0
X6.0Y16.0
X6.0Y20.8
X15.2Y15.2
X7.6Y10.0
X5.6Y27.2
X16.0Y12.8
X15.494Y1.778
X18.542Y39.116
X18.034Y2.286
X18.0Y9.2
X8.0Y44.45
X7.6Y13.6
X9.6Y14.0
X16.764Y3.048
X13.6Y6.4
X7.366Y7.874
X14.732Y1.778
X18.034Y1.016
X18.034Y14.732
X7.425Y5.775
X15.95Y4.95
X17.875Y3.85
X12.7Y40.894
X7.6Y3.6
X6.8Y18.0
X18.0Y12.0
X20.8Y43.2
X16.8Y5.6
X7.366Y1.016
X11.2Y14.8
X18.0Y11.2
X21.725Y26.125
X13.97Y1.778
X16.764Y40.64
X14.025Y15.125
X21.6Y29.2
X18.0Y8.0
T2
X24.13Y44.45
X24.13Y24.13
X24.13Y36.83
X24.13Y39.37
X24.13Y34.29
X24.13Y31.75
X24.13Y26.67
X24.13Y41.91
X24.13Y29.21
X1.27Y21.59
X1.27Y1.27
X1.27Y13.97
X1.27Y16.51
X1.27Y11.43
X1.27Y8.89
X1.27Y3.81
X1.27Y19.05
X1.27Y6.35
X12.66Y29.315
X12.66Y31.855
X12.66Y34.395
X12.66Y36.935
X24.13Y21.59
X24.13Y1.27
X24.13Y13.97
X24.13Y16.51
X24.13Y11.43
X24.13Y8.89
X24.13Y3.81
X24.13Y19.05
X24.13Y6.35
X1.27Y44.45
X1.27Y24.13
X1.27Y36.83
X1.27Y39.37
X1.27Y34.29
X1.27Y31.75
X1.27Y26.67
X1.27Y41.91
X1.27Y29.21
X16.063Y20.107
X16.063Y22.647
X16.063Y25.187
X16.063Y27.727
T0
M30
