G04 --- HEADER BEGIN --- *
G04 #@! TF.GenerationSoftware,LibrePCB,LibrePCB,0.1.6*
G04 #@! TF.CreationDate,2022-05-15T02:00:43*
G04 #@! TF.ProjectId,ttgo_bob,bfd8dc32-b202-4bf0-b9b5-60a84d76451e,v1*
G04 #@! TF.Part,Single*
G04 #@! TF.SameCoordinates*
G04 #@! TF.FileFunction,Soldermask,Bot*
G04 #@! TF.FilePolarity,Negative*
%FSLAX66Y66*%
%MOMM*%
G01*
G75*
G04 --- HEADER END --- *
G04 --- APERTURE LIST BEGIN --- *
%ADD10R,2.39X1.787*%
%ADD11O,2.39X1.787*%
G04 --- APERTURE LIST END --- *
G04 --- BOARD BEGIN --- *
D10*
G04 #@! TO.C,J5*
X16063000Y27727000D03*
D11*
X16063000Y25187000D03*
X16063000Y22647000D03*
X16063000Y20107000D03*
G04 #@! TO.C,J3*
X1270000Y29210000D03*
X1270000Y41910000D03*
X1270000Y26670000D03*
X1270000Y31750000D03*
X1270000Y34290000D03*
X1270000Y39370000D03*
X1270000Y36830000D03*
X1270000Y24130000D03*
D10*
X1270000Y44450000D03*
D11*
G04 #@! TO.C,J2*
X24130000Y6350000D03*
X24130000Y19050000D03*
X24130000Y3810000D03*
X24130000Y8890000D03*
X24130000Y11430000D03*
X24130000Y16510000D03*
X24130000Y13970000D03*
X24130000Y1270000D03*
D10*
X24130000Y21590000D03*
G04 #@! TO.C,J6*
X12660000Y36935000D03*
D11*
X12660000Y34395000D03*
X12660000Y31855000D03*
X12660000Y29315000D03*
G04 #@! TO.C,J4*
X1270000Y6350000D03*
X1270000Y19050000D03*
X1270000Y3810000D03*
X1270000Y8890000D03*
X1270000Y11430000D03*
X1270000Y16510000D03*
X1270000Y13970000D03*
X1270000Y1270000D03*
D10*
X1270000Y21590000D03*
D11*
G04 #@! TO.C,J1*
X24130000Y29210000D03*
X24130000Y41910000D03*
X24130000Y26670000D03*
X24130000Y31750000D03*
X24130000Y34290000D03*
X24130000Y39370000D03*
X24130000Y36830000D03*
X24130000Y24130000D03*
D10*
X24130000Y44450000D03*
G04 --- BOARD END --- *
G04 #@! TF.MD5,700131320573577d55603a1141172d1e*
M02*
