G04 --- HEADER BEGIN --- *
G04 #@! TF.GenerationSoftware,LibrePCB,LibrePCB,0.1.6*
G04 #@! TF.CreationDate,2022-05-15T02:00:43*
G04 #@! TF.ProjectId,ttgo_bob,bfd8dc32-b202-4bf0-b9b5-60a84d76451e,v1*
G04 #@! TF.Part,Single*
G04 #@! TF.SameCoordinates*
G04 #@! TF.FileFunction,Copper,L3,Inr*
G04 #@! TF.FilePolarity,Positive*
%FSLAX66Y66*%
%MOMM*%
G01*
G75*
G04 --- HEADER END --- *
G04 --- APERTURE LIST BEGIN --- *
G04 #@! TA.AperFunction,ComponentPad*
%ADD10R,2.19X1.587*%
%ADD11O,2.19X1.587*%
G04 #@! TA.AperFunction,ViaPad*
%ADD12C,0.6*%
G04 #@! TA.AperFunction,Conductor*
%ADD13C,0.15*%
%ADD14C,0.5*%
G04 #@! TD*
G04 --- APERTURE LIST END --- *
G04 --- BOARD BEGIN --- *
D10*
G04 #@! TO.N,VCC*
G04 #@! TO.C,J5*
G04 #@! TO.P,J5,1,1*
X16063000Y27727000D03*
D11*
G04 #@! TO.N,IO1*
G04 #@! TO.P,J5,2,2*
X16063000Y25187000D03*
G04 #@! TO.N,IO3*
G04 #@! TO.P,J5,3,3*
X16063000Y22647000D03*
G04 #@! TO.N,GND*
G04 #@! TO.P,J5,4,4*
X16063000Y20107000D03*
G04 #@! TO.N,IO9*
G04 #@! TO.C,J3*
G04 #@! TO.P,J3,7,7*
X1270000Y29210000D03*
G04 #@! TO.N,IO1*
G04 #@! TO.P,J3,2,2*
X1270000Y41910000D03*
G04 #@! TO.N,IO12*
G04 #@! TO.P,J3,8,8*
X1270000Y26670000D03*
G04 #@! TO.N,IO5*
G04 #@! TO.P,J3,6,6*
X1270000Y31750000D03*
G04 #@! TO.N,IO4*
G04 #@! TO.P,J3,5,5*
X1270000Y34290000D03*
G04 #@! TO.N,IO2*
G04 #@! TO.P,J3,3,3*
X1270000Y39370000D03*
G04 #@! TO.N,IO3*
G04 #@! TO.P,J3,4,4*
X1270000Y36830000D03*
G04 #@! TO.N,IO13*
G04 #@! TO.P,J3,9,9*
X1270000Y24130000D03*
D10*
G04 #@! TO.N,IO0*
G04 #@! TO.P,J3,1,1*
X1270000Y44450000D03*
D11*
G04 #@! TO.N,IO21*
G04 #@! TO.C,J2*
G04 #@! TO.P,J2,7,7*
X24130000Y6350000D03*
G04 #@! TO.N,IO27*
G04 #@! TO.P,J2,2,2*
X24130000Y19050000D03*
G04 #@! TO.N,IO19*
G04 #@! TO.P,J2,8,8*
X24130000Y3810000D03*
G04 #@! TO.N,IO22*
G04 #@! TO.P,J2,6,6*
X24130000Y8890000D03*
G04 #@! TO.N,IO23*
G04 #@! TO.P,J2,5,5*
X24130000Y11430000D03*
G04 #@! TO.N,IO26*
G04 #@! TO.P,J2,3,3*
X24130000Y16510000D03*
G04 #@! TO.N,IO25*
G04 #@! TO.P,J2,4,4*
X24130000Y13970000D03*
G04 #@! TO.N,IO18*
G04 #@! TO.P,J2,9,9*
X24130000Y1270000D03*
D10*
G04 #@! TO.N,IO32*
G04 #@! TO.P,J2,1,1*
X24130000Y21590000D03*
G04 #@! TO.N,IO14*
G04 #@! TO.C,J6*
G04 #@! TO.P,J6,1,1*
X12660000Y36935000D03*
D11*
G04 #@! TO.N,IO12*
G04 #@! TO.P,J6,2,2*
X12660000Y34395000D03*
G04 #@! TO.N,IO13*
G04 #@! TO.P,J6,3,3*
X12660000Y31855000D03*
G04 #@! TO.N,IO15*
G04 #@! TO.P,J6,4,4*
X12660000Y29315000D03*
G04 #@! TO.N,SIO1*
G04 #@! TO.C,J4*
G04 #@! TO.P,J4,7,7*
X1270000Y6350000D03*
G04 #@! TO.N,IO15*
G04 #@! TO.P,J4,2,2*
X1270000Y19050000D03*
G04 #@! TO.N,SIO2*
G04 #@! TO.P,J4,8,8*
X1270000Y3810000D03*
G04 #@! TO.N,SIO0*
G04 #@! TO.P,J4,6,6*
X1270000Y8890000D03*
G04 #@! TO.N,SCLK*
G04 #@! TO.P,J4,5,5*
X1270000Y11430000D03*
G04 #@! TO.N,CS*
G04 #@! TO.P,J4,3,3*
X1270000Y16510000D03*
G04 #@! TO.N,FCS*
G04 #@! TO.P,J4,4,4*
X1270000Y13970000D03*
G04 #@! TO.N,SIO3*
G04 #@! TO.P,J4,9,9*
X1270000Y1270000D03*
D10*
G04 #@! TO.N,IO14*
G04 #@! TO.P,J4,1,1*
X1270000Y21590000D03*
D11*
G04 #@! TO.N,IO35*
G04 #@! TO.C,J1*
G04 #@! TO.P,J1,7,7*
X24130000Y29210000D03*
G04 #@! TO.N,VCC*
G04 #@! TO.P,J1,2,2*
X24130000Y41910000D03*
G04 #@! TO.N,IO34*
G04 #@! TO.P,J1,8,8*
X24130000Y26670000D03*
G04 #@! TO.N,IO36*
G04 #@! TO.P,J1,6,6*
X24130000Y31750000D03*
G04 #@! TO.N,IO39*
G04 #@! TO.P,J1,5,5*
X24130000Y34290000D03*
G04 #@! TO.N,GND*
G04 #@! TO.P,J1,3,3*
X24130000Y39370000D03*
G04 #@! TO.P,J1,4,4*
X24130000Y36830000D03*
G04 #@! TO.N,IO33*
G04 #@! TO.P,J1,9,9*
X24130000Y24130000D03*
D10*
G04 #@! TO.N,EN*
G04 #@! TO.P,J1,1,1*
X24130000Y44450000D03*
D12*
G04 #@! TD.C*
G04 #@! TD.P*
G04 #@! TO.N,IO32*
X18000000Y8000000D03*
G04 #@! TO.N,IO35*
X21600000Y29200000D03*
G04 #@! TO.N,CS*
X14025000Y15125000D03*
G04 #@! TO.N,GND*
X16764000Y40640000D03*
G04 #@! TO.N,IO23*
X13970000Y1778000D03*
G04 #@! TO.N,IO34*
X21725000Y26125000D03*
G04 #@! TO.N,IO26*
X18000000Y11200000D03*
G04 #@! TO.N,SIO3*
X11200000Y14800000D03*
G04 #@! TO.N,GND*
X7366000Y1016000D03*
G04 #@! TO.N,EN*
X16800000Y5600000D03*
X20800000Y43200000D03*
G04 #@! TO.N,IO27*
X18000000Y12000000D03*
G04 #@! TO.N,IO4*
X6800000Y18000000D03*
D13*
X1270000Y34290000D02*
X5310000Y34290000D01*
X7200000Y18400000D02*
X6800000Y18000000D01*
X7200000Y32400000D02*
X7200000Y18400000D01*
X5310000Y34290000D02*
X7200000Y32400000D01*
D12*
G04 #@! TO.N,IO1*
X7600000Y3600000D03*
D13*
X18000000Y21200000D02*
X18000000Y16000000D01*
X18000000Y16000000D02*
X12000000Y10000000D01*
X16063000Y25187000D02*
X16063000Y25137000D01*
X16063000Y25137000D02*
X17600000Y23600000D01*
X12000000Y4400000D02*
X11200000Y3600000D01*
X17600000Y23600000D02*
X17600000Y21600000D01*
X12000000Y4400000D02*
X12000000Y10000000D01*
X11200000Y3600000D02*
X7600000Y3600000D01*
X17600000Y21600000D02*
X18000000Y21200000D01*
D12*
G04 #@! TO.N,GND*
X12700000Y40894000D03*
G04 #@! TO.N,IO21*
X17875000Y3850000D03*
X15950000Y4950000D03*
X7425000Y5775000D03*
D13*
X15950000Y4950000D02*
X16225000Y4950000D01*
X16775000Y4950000D02*
X16225000Y4950000D01*
X17875000Y3850000D02*
X16775000Y4950000D01*
D12*
G04 #@! TO.N,GND*
X18034000Y14732000D03*
X18034000Y1016000D03*
G04 #@! TO.N,IO22*
X14732000Y1778000D03*
G04 #@! TO.N,IO19*
X7366000Y7874000D03*
X13600000Y6400000D03*
X16764000Y3048000D03*
D13*
X16764000Y3048000D02*
X13600000Y6212000D01*
X7620000Y7874000D02*
X7366000Y7874000D01*
X13600000Y6212000D02*
X13600000Y6400000D01*
D12*
G04 #@! TO.N,SIO2*
X9600000Y14000000D03*
G04 #@! TO.N,IO0*
X7600000Y13600000D03*
X8000000Y44450000D03*
D13*
X8000000Y28000000D02*
X8000000Y44450000D01*
X8000000Y28000000D02*
X8000000Y14000000D01*
X7600000Y13600000D02*
X8000000Y14000000D01*
D12*
G04 #@! TO.N,IO33*
X18000000Y9200000D03*
G04 #@! TO.N,VCC*
X18034000Y2286000D03*
X18542000Y39116000D03*
D14*
X18542000Y30206000D02*
X16063000Y27727000D01*
X19304000Y30226000D02*
X18542000Y30988000D01*
X19304000Y3556000D02*
X18034000Y2286000D01*
X18542000Y30988000D02*
X18542000Y39116000D01*
X19304000Y30226000D02*
X19304000Y3556000D01*
X18542000Y30988000D02*
X18542000Y30206000D01*
D12*
G04 #@! TO.N,IO18*
X15494000Y1778000D03*
G04 #@! TO.N,IO14*
X16000000Y12800000D03*
X5600000Y27200000D03*
G04 #@! TO.N,IO5*
X7600000Y10000000D03*
D13*
X6250000Y31750000D02*
X6800000Y31200000D01*
X6800000Y20000000D02*
X6000000Y19200000D01*
X1270000Y31750000D02*
X6250000Y31750000D01*
X7600000Y12400000D02*
X7600000Y10000000D01*
X6800000Y31200000D02*
X6800000Y20000000D01*
X6000000Y19200000D02*
X5200000Y18400000D01*
X5200000Y14800000D02*
X7600000Y12400000D01*
X5200000Y18400000D02*
X5200000Y14800000D01*
D12*
G04 #@! TO.N,IO9*
X15200000Y15200000D03*
X6000000Y20800000D03*
D13*
X6400000Y21200000D02*
X6000000Y20800000D01*
X6000000Y28400000D02*
X6400000Y28000000D01*
X6400000Y22400000D02*
X6400000Y21200000D01*
X2080000Y28400000D02*
X6000000Y28400000D01*
X6400000Y28000000D02*
X6400000Y22400000D01*
X1270000Y29210000D02*
X2080000Y28400000D01*
D12*
G04 #@! TO.N,IO2*
X6000000Y16000000D03*
D13*
X7600000Y33040000D02*
X7600000Y16800000D01*
X1270000Y39370000D02*
X7600000Y33040000D01*
X6800000Y16000000D02*
X6000000Y16000000D01*
X7600000Y16800000D02*
X6800000Y16000000D01*
D12*
G04 #@! TO.N,SCLK*
X3600000Y18000000D03*
X10000000Y18800000D03*
D13*
X2230000Y11430000D02*
X3600000Y12800000D01*
X3600000Y18000000D02*
X3600000Y12800000D01*
X1270000Y11430000D02*
X2230000Y11430000D01*
D12*
G04 #@! TO.N,SIO1*
X9600000Y14800000D03*
G04 #@! TO.N,IO25*
X18000000Y10000000D03*
G04 #@! TO.N,IO3*
X7600000Y4800000D03*
D13*
X11600000Y5200000D02*
X11600000Y10400000D01*
X11200000Y4800000D02*
X8000000Y4800000D01*
X17600000Y21110000D02*
X17600000Y18000000D01*
X17600000Y16400000D02*
X11600000Y10400000D01*
X16063000Y22647000D02*
X17600000Y21110000D01*
X11600000Y5200000D02*
X11200000Y4800000D01*
X7600000Y4800000D02*
X8000000Y4800000D01*
X17600000Y18000000D02*
X17600000Y16400000D01*
D12*
G04 #@! TO.N,GND*
X16510000Y38608000D03*
G04 --- BOARD END --- *
G04 #@! TF.MD5,96c9f94e4787728ae766f88398446728*
M02*
