G04 --- HEADER BEGIN --- *
G04 #@! TF.GenerationSoftware,LibrePCB,LibrePCB,0.1.6*
G04 #@! TF.CreationDate,2022-05-15T02:00:43*
G04 #@! TF.ProjectId,ttgo_bob,bfd8dc32-b202-4bf0-b9b5-60a84d76451e,v1*
G04 #@! TF.Part,Single*
G04 #@! TF.SameCoordinates*
G04 #@! TF.FileFunction,Copper,L1,Top*
G04 #@! TF.FilePolarity,Positive*
%FSLAX66Y66*%
%MOMM*%
G01*
G75*
G04 --- HEADER END --- *
G04 --- APERTURE LIST BEGIN --- *
G04 #@! TA.AperFunction,ComponentPad*
%ADD10R,2.19X1.587*%
%ADD11O,2.19X1.587*%
G04 #@! TA.AperFunction,SMDPad,CuDef*
%ADD12R,0.55X0.55*%
%ADD13R,0.8X0.75*%
%ADD14R,1.0X1.1*%
%ADD15R,2.1X0.7*%
%ADD16R,0.7X2.1*%
G04 #@! TA.AperFunction,ViaPad*
%ADD17C,0.6*%
G04 #@! TA.AperFunction,Conductor*
%ADD18C,0.15*%
%ADD19C,0.5*%
G04 #@! TD*
G04 --- APERTURE LIST END --- *
G04 --- BOARD BEGIN --- *
D10*
G04 #@! TO.N,VCC*
G04 #@! TO.C,J5*
G04 #@! TO.P,J5,1,1*
X16063000Y27727000D03*
D11*
G04 #@! TO.N,IO1*
G04 #@! TO.P,J5,2,2*
X16063000Y25187000D03*
G04 #@! TO.N,IO3*
G04 #@! TO.P,J5,3,3*
X16063000Y22647000D03*
G04 #@! TO.N,GND*
G04 #@! TO.P,J5,4,4*
X16063000Y20107000D03*
D12*
G04 #@! TO.N,EN*
G04 #@! TO.C,S1*
G04 #@! TO.P,S1,3,2*
X15360000Y43756000D03*
G04 #@! TO.N,GND*
G04 #@! TO.P,S1,1,1*
X15360000Y41080000D03*
G04 #@! TO.N,EN*
G04 #@! TO.P,S1,4,2*
X16136000Y43756000D03*
G04 #@! TO.N,GND*
G04 #@! TO.P,S1,2,1*
X16136000Y41080000D03*
D13*
G04 #@! TO.N,VCC*
G04 #@! TO.C,R1*
G04 #@! TO.P,R1,2,2*
X17526000Y41643000D03*
G04 #@! TO.N,EN*
G04 #@! TO.P,R1,1,1*
X17526000Y43193000D03*
G04 #@! TO.N,VCC*
G04 #@! TO.C,R2*
G04 #@! TO.P,R2,2,2*
X13578000Y41663000D03*
G04 #@! TO.N,IO0*
G04 #@! TO.P,R2,1,1*
X13578000Y43213000D03*
D14*
G04 #@! TO.N,GND*
G04 #@! TO.C,C1*
G04 #@! TO.P,C1,2,2*
X17526000Y38012000D03*
G04 #@! TO.N,VCC*
G04 #@! TO.P,C1,1,1*
X17526000Y39712000D03*
D11*
G04 #@! TO.N,IO9*
G04 #@! TO.C,J3*
G04 #@! TO.P,J3,7,7*
X1270000Y29210000D03*
G04 #@! TO.N,IO1*
G04 #@! TO.P,J3,2,2*
X1270000Y41910000D03*
G04 #@! TO.N,IO12*
G04 #@! TO.P,J3,8,8*
X1270000Y26670000D03*
G04 #@! TO.N,IO5*
G04 #@! TO.P,J3,6,6*
X1270000Y31750000D03*
G04 #@! TO.N,IO4*
G04 #@! TO.P,J3,5,5*
X1270000Y34290000D03*
G04 #@! TO.N,IO2*
G04 #@! TO.P,J3,3,3*
X1270000Y39370000D03*
G04 #@! TO.N,IO3*
G04 #@! TO.P,J3,4,4*
X1270000Y36830000D03*
G04 #@! TO.N,IO13*
G04 #@! TO.P,J3,9,9*
X1270000Y24130000D03*
D10*
G04 #@! TO.N,IO0*
G04 #@! TO.P,J3,1,1*
X1270000Y44450000D03*
D11*
G04 #@! TO.N,IO21*
G04 #@! TO.C,J2*
G04 #@! TO.P,J2,7,7*
X24130000Y6350000D03*
G04 #@! TO.N,IO27*
G04 #@! TO.P,J2,2,2*
X24130000Y19050000D03*
G04 #@! TO.N,IO19*
G04 #@! TO.P,J2,8,8*
X24130000Y3810000D03*
G04 #@! TO.N,IO22*
G04 #@! TO.P,J2,6,6*
X24130000Y8890000D03*
G04 #@! TO.N,IO23*
G04 #@! TO.P,J2,5,5*
X24130000Y11430000D03*
G04 #@! TO.N,IO26*
G04 #@! TO.P,J2,3,3*
X24130000Y16510000D03*
G04 #@! TO.N,IO25*
G04 #@! TO.P,J2,4,4*
X24130000Y13970000D03*
G04 #@! TO.N,IO18*
G04 #@! TO.P,J2,9,9*
X24130000Y1270000D03*
D10*
G04 #@! TO.N,IO32*
G04 #@! TO.P,J2,1,1*
X24130000Y21590000D03*
D12*
G04 #@! TO.N,IO0*
G04 #@! TO.C,S2*
G04 #@! TO.P,S2,3,2*
X11296000Y43756000D03*
G04 #@! TO.N,GND*
G04 #@! TO.P,S2,1,1*
X11296000Y41080000D03*
G04 #@! TO.N,IO0*
G04 #@! TO.P,S2,4,2*
X12072000Y43756000D03*
G04 #@! TO.N,GND*
G04 #@! TO.P,S2,2,1*
X12072000Y41080000D03*
D10*
G04 #@! TO.N,IO14*
G04 #@! TO.C,J6*
G04 #@! TO.P,J6,1,1*
X12660000Y36935000D03*
D11*
G04 #@! TO.N,IO12*
G04 #@! TO.P,J6,2,2*
X12660000Y34395000D03*
G04 #@! TO.N,IO13*
G04 #@! TO.P,J6,3,3*
X12660000Y31855000D03*
G04 #@! TO.N,IO15*
G04 #@! TO.P,J6,4,4*
X12660000Y29315000D03*
G04 #@! TO.N,SIO1*
G04 #@! TO.C,J4*
G04 #@! TO.P,J4,7,7*
X1270000Y6350000D03*
G04 #@! TO.N,IO15*
G04 #@! TO.P,J4,2,2*
X1270000Y19050000D03*
G04 #@! TO.N,SIO2*
G04 #@! TO.P,J4,8,8*
X1270000Y3810000D03*
G04 #@! TO.N,SIO0*
G04 #@! TO.P,J4,6,6*
X1270000Y8890000D03*
G04 #@! TO.N,SCLK*
G04 #@! TO.P,J4,5,5*
X1270000Y11430000D03*
G04 #@! TO.N,CS*
G04 #@! TO.P,J4,3,3*
X1270000Y16510000D03*
G04 #@! TO.N,FCS*
G04 #@! TO.P,J4,4,4*
X1270000Y13970000D03*
G04 #@! TO.N,SIO3*
G04 #@! TO.P,J4,9,9*
X1270000Y1270000D03*
D10*
G04 #@! TO.N,IO14*
G04 #@! TO.P,J4,1,1*
X1270000Y21590000D03*
D15*
G04 #@! TO.N,EN*
G04 #@! TO.C,U1*
G04 #@! TO.P,U1,3,!RST/EN*
X19600000Y2875000D03*
G04 #@! TO.N,IO33*
G04 #@! TO.P,U1,9,GPIO33*
X19600000Y8875000D03*
G04 #@! TO.N,IO1*
G04 #@! TO.P,U1,35,GPIO1/U0TXD*
X5800000Y3875000D03*
G04 #@! TO.N,N/C*
G04 #@! TO.P,U1,32*
X5800000Y6875000D03*
G04 #@! TO.N,IO36*
G04 #@! TO.P,U1,4,GPIO36/SENSOR_VP*
X19600000Y3875000D03*
D16*
G04 #@! TO.N,SIO2*
G04 #@! TO.P,U1,19,SIO2*
X13200000Y16785000D03*
D15*
G04 #@! TO.N,GND*
G04 #@! TO.P,U1,1,GND*
X19600000Y875000D03*
G04 #@! TO.N,IO4*
G04 #@! TO.P,U1,26,GPIO4*
X5800000Y12875000D03*
G04 #@! TO.N,IO0*
G04 #@! TO.P,U1,25,GPIO0*
X5800000Y13875000D03*
G04 #@! TO.N,IO32*
G04 #@! TO.P,U1,8,GPIO32*
X19600000Y7875000D03*
G04 #@! TO.N,GND*
G04 #@! TO.P,U1,15,GND*
X19600000Y14875000D03*
G04 #@! TO.N,SIO0*
G04 #@! TO.P,U1,28,SIO0*
X5800000Y10875000D03*
G04 #@! TO.N,IO12*
G04 #@! TO.P,U1,14,GPIO12/MTDI*
X19600000Y13875000D03*
G04 #@! TO.N,IO5*
G04 #@! TO.P,U1,29,GPIO5*
X5800000Y9875000D03*
G04 #@! TO.N,IO3*
G04 #@! TO.P,U1,34,GPIO3/U0RXD*
X5800000Y4875000D03*
G04 #@! TO.N,IO14*
G04 #@! TO.P,U1,13,GPIO14/MTMS*
X19600000Y12875000D03*
G04 #@! TO.N,IO35*
G04 #@! TO.P,U1,7,GPIO35*
X19600000Y6875000D03*
D16*
G04 #@! TO.N,SCLK*
G04 #@! TO.P,U1,20,SCLK*
X12200000Y16785000D03*
D15*
G04 #@! TO.N,VCC*
G04 #@! TO.P,U1,2,3V3*
X19600000Y1875000D03*
G04 #@! TO.N,IO39*
G04 #@! TO.P,U1,5,GPIO39/SENSOR_VN*
X19600000Y4875000D03*
G04 #@! TO.N,IO22*
G04 #@! TO.P,U1,36,GPIO22*
X5800000Y2875000D03*
G04 #@! TO.N,IO19*
G04 #@! TO.P,U1,31,GPIO19*
X5800000Y7875000D03*
D16*
G04 #@! TO.N,SIO3*
G04 #@! TO.P,U1,21,SIO3*
X11200000Y16785000D03*
D15*
G04 #@! TO.N,FCS*
G04 #@! TO.P,U1,27,FLASH_CS*
X5800000Y11875000D03*
G04 #@! TO.N,IO21*
G04 #@! TO.P,U1,33,GPIO21*
X5800000Y5875000D03*
D16*
G04 #@! TO.N,CS*
G04 #@! TO.P,U1,18,GPIO10/PSRAM_CS*
X14200000Y16785000D03*
D15*
G04 #@! TO.N,IO25*
G04 #@! TO.P,U1,10,GPIO25*
X19600000Y9875000D03*
G04 #@! TO.N,IO26*
G04 #@! TO.P,U1,11,GPIO26*
X19600000Y10875000D03*
G04 #@! TO.N,GND*
G04 #@! TO.P,U1,38,GND*
X5800000Y875000D03*
G04 #@! TO.N,IO34*
G04 #@! TO.P,U1,6,GPIO34*
X19600000Y5875000D03*
D16*
G04 #@! TO.N,IO9*
G04 #@! TO.P,U1,17,GPIO9*
X15200000Y16785000D03*
D15*
G04 #@! TO.N,IO23*
G04 #@! TO.P,U1,37,GPIO23*
X5800000Y1875000D03*
G04 #@! TO.N,IO27*
G04 #@! TO.P,U1,12,GPIO27*
X19600000Y11875000D03*
D16*
G04 #@! TO.N,SIO1*
G04 #@! TO.P,U1,22,SIO1*
X10200000Y16785000D03*
D15*
G04 #@! TO.N,IO18*
G04 #@! TO.P,U1,30,GPIO18*
X5800000Y8875000D03*
D16*
G04 #@! TO.N,IO13*
G04 #@! TO.P,U1,16,GPIO13/MTCK*
X16200000Y16785000D03*
D15*
G04 #@! TO.N,IO2*
G04 #@! TO.P,U1,24,GPIO2*
X5800000Y14875000D03*
D16*
G04 #@! TO.N,IO15*
G04 #@! TO.P,U1,23,GPIO15/MTDO*
X9200000Y16785000D03*
D11*
G04 #@! TO.N,IO35*
G04 #@! TO.C,J1*
G04 #@! TO.P,J1,7,7*
X24130000Y29210000D03*
G04 #@! TO.N,VCC*
G04 #@! TO.P,J1,2,2*
X24130000Y41910000D03*
G04 #@! TO.N,IO34*
G04 #@! TO.P,J1,8,8*
X24130000Y26670000D03*
G04 #@! TO.N,IO36*
G04 #@! TO.P,J1,6,6*
X24130000Y31750000D03*
G04 #@! TO.N,IO39*
G04 #@! TO.P,J1,5,5*
X24130000Y34290000D03*
G04 #@! TO.N,GND*
G04 #@! TO.P,J1,3,3*
X24130000Y39370000D03*
G04 #@! TO.P,J1,4,4*
X24130000Y36830000D03*
G04 #@! TO.N,IO33*
G04 #@! TO.P,J1,9,9*
X24130000Y24130000D03*
D10*
G04 #@! TO.N,EN*
G04 #@! TO.P,J1,1,1*
X24130000Y44450000D03*
D14*
G04 #@! TO.N,GND*
G04 #@! TO.C,C2*
G04 #@! TO.P,C2,2,2*
X15494000Y38012000D03*
G04 #@! TO.N,VCC*
G04 #@! TO.P,C2,1,1*
X15494000Y39712000D03*
D17*
G04 #@! TD.C*
G04 #@! TD.P*
G04 #@! TO.N,IO32*
X18000000Y8000000D03*
D18*
X18125000Y7875000D02*
X18000000Y8000000D01*
X19600000Y7875000D02*
X18125000Y7875000D01*
D17*
G04 #@! TO.N,IO35*
X21600000Y29200000D03*
D18*
X21600000Y7200000D02*
X21600000Y24800000D01*
X20800000Y25600000D02*
X20800000Y26400000D01*
X21600000Y24800000D02*
X20800000Y25600000D01*
X19600000Y6875000D02*
X21275000Y6875000D01*
X21275000Y6875000D02*
X21600000Y7200000D01*
X22000000Y27600000D02*
X21600000Y27200000D01*
X22000000Y28800000D02*
X21600000Y29200000D01*
X20800000Y26400000D02*
X21600000Y27200000D01*
X22000000Y27600000D02*
X22000000Y28800000D01*
D17*
G04 #@! TO.N,CS*
X14025000Y15125000D03*
D18*
X14025000Y15125000D02*
X14200000Y15300000D01*
X14200000Y15300000D02*
X14200000Y16785000D01*
D17*
G04 #@! TO.N,GND*
X16764000Y40640000D03*
D19*
X16576000Y40640000D02*
X16764000Y40640000D01*
X16136000Y41080000D02*
X16576000Y40640000D01*
X16136000Y41080000D02*
X15360000Y41080000D01*
D18*
G04 #@! TO.N,IO13*
X16200000Y17400000D02*
X16200000Y16785000D01*
X15600000Y18400000D02*
X16200000Y17800000D01*
X8800000Y26000000D02*
X8800000Y25600000D01*
X11200000Y28400000D02*
X8800000Y26000000D01*
X12660000Y31855000D02*
X11200000Y30395000D01*
X14000000Y30515000D02*
X14000000Y18800000D01*
X12660000Y31855000D02*
X14000000Y30515000D01*
X16200000Y17800000D02*
X16200000Y16785000D01*
X14400000Y18400000D02*
X15600000Y18400000D01*
X11200000Y30395000D02*
X11200000Y28400000D01*
X8800000Y25600000D02*
X7330000Y24130000D01*
X14000000Y18800000D02*
X14400000Y18400000D01*
X7330000Y24130000D02*
X1270000Y24130000D01*
G04 #@! TO.N,FCS*
X1270000Y13970000D02*
X3365000Y11875000D01*
X3365000Y11875000D02*
X5800000Y11875000D01*
G04 #@! TO.N,IO15*
X12660000Y29315000D02*
X9200000Y25855000D01*
X9200000Y16785000D02*
X6935000Y19050000D01*
X9200000Y25855000D02*
X9200000Y16785000D01*
X6935000Y19050000D02*
X1270000Y19050000D01*
D17*
G04 #@! TO.N,IO23*
X13970000Y1778000D03*
D18*
X5800000Y1875000D02*
X5897000Y1778000D01*
X5897000Y1778000D02*
X13970000Y1778000D01*
D17*
G04 #@! TO.N,IO34*
X21725000Y26125000D03*
D18*
X21550000Y5875000D02*
X22000000Y6325000D01*
X19600000Y5875000D02*
X21550000Y5875000D01*
X22000000Y25850000D02*
X21725000Y26125000D01*
X22000000Y6325000D02*
X22000000Y25850000D01*
D17*
G04 #@! TO.N,IO26*
X18000000Y11200000D03*
D18*
X19600000Y10875000D02*
X18325000Y10875000D01*
X18325000Y10875000D02*
X18000000Y11200000D01*
D17*
G04 #@! TO.N,SIO3*
X11200000Y14800000D03*
D18*
X11200000Y16785000D02*
X11200000Y14800000D01*
D17*
G04 #@! TO.N,GND*
X7366000Y1016000D03*
D19*
X5800000Y875000D02*
X7225000Y875000D01*
X7225000Y875000D02*
X7366000Y1016000D01*
D17*
G04 #@! TO.N,EN*
X16800000Y5600000D03*
X20800000Y43200000D03*
D18*
X17600000Y3200000D02*
X17925000Y2875000D01*
X18783000Y44450000D02*
X24130000Y44450000D01*
X16963000Y43756000D02*
X17526000Y43193000D01*
X17533000Y43200000D02*
X20800000Y43200000D01*
X17925000Y2875000D02*
X19600000Y2875000D01*
X16136000Y43756000D02*
X16963000Y43756000D01*
X16800000Y4000000D02*
X17600000Y3200000D01*
X17526000Y43193000D02*
X18783000Y44450000D01*
X16136000Y43756000D02*
X15360000Y43756000D01*
X17526000Y43193000D02*
X17533000Y43200000D01*
X16800000Y5600000D02*
X16800000Y4000000D01*
D17*
G04 #@! TO.N,IO27*
X18000000Y12000000D03*
D18*
X19600000Y11875000D02*
X18125000Y11875000D01*
X18125000Y11875000D02*
X18000000Y12000000D01*
D17*
G04 #@! TO.N,IO4*
X6800000Y18000000D03*
D18*
X4800000Y18000000D02*
X4000000Y17200000D01*
X4000000Y13600000D02*
X4725000Y12875000D01*
X4725000Y12875000D02*
X5800000Y12875000D01*
X6800000Y18000000D02*
X4800000Y18000000D01*
X4000000Y13600000D02*
X4000000Y17200000D01*
G04 #@! TO.N,IO39*
X22075000Y4875000D02*
X22400000Y5200000D01*
X22400000Y5200000D02*
X22400000Y32560000D01*
X19600000Y4875000D02*
X22075000Y4875000D01*
X22400000Y32560000D02*
X24130000Y34290000D01*
D17*
G04 #@! TO.N,IO1*
X7600000Y3600000D03*
D18*
X7600000Y3600000D02*
X7325000Y3875000D01*
X7325000Y3875000D02*
X5800000Y3875000D01*
D17*
G04 #@! TO.N,GND*
X12700000Y40894000D03*
D19*
X12258000Y40894000D02*
X12700000Y40894000D01*
X12072000Y41080000D02*
X11296000Y41080000D01*
X12072000Y41080000D02*
X12258000Y40894000D01*
D17*
G04 #@! TO.N,IO21*
X17875000Y3850000D03*
X15950000Y4950000D03*
X7425000Y5775000D03*
D18*
X7425000Y5775000D02*
X7325000Y5875000D01*
X7325000Y5875000D02*
X5800000Y5875000D01*
D17*
G04 #@! TO.N,GND*
X18034000Y14732000D03*
D19*
X18177000Y14875000D02*
X18034000Y14732000D01*
X19600000Y14875000D02*
X18177000Y14875000D01*
D17*
X18034000Y1016000D03*
D19*
X19600000Y875000D02*
X18175000Y875000D01*
X18175000Y875000D02*
X18034000Y1016000D01*
D17*
G04 #@! TO.N,IO22*
X14732000Y1778000D03*
D18*
X13716000Y2540000D02*
X14224000Y2540000D01*
X5800000Y2875000D02*
X5881000Y2794000D01*
X14224000Y2540000D02*
X14732000Y1778000D01*
X5881000Y2794000D02*
X6858000Y2794000D01*
X13462000Y2307000D02*
X13716000Y2540000D01*
X7620000Y2307000D02*
X13462000Y2307000D01*
X7620000Y2307000D02*
X6858000Y2794000D01*
D17*
G04 #@! TO.N,IO19*
X7366000Y7874000D03*
X13600000Y6400000D03*
X16764000Y3048000D03*
D18*
X7365000Y7875000D02*
X5800000Y7875000D01*
X7366000Y7874000D02*
X7365000Y7875000D01*
G04 #@! TO.N,SIO0*
X3255000Y10875000D02*
X5800000Y10875000D01*
X1270000Y8890000D02*
X3255000Y10875000D01*
D17*
G04 #@! TO.N,SIO2*
X9600000Y14000000D03*
D18*
X11200000Y14000000D02*
X9600000Y14000000D01*
X13200000Y16000000D02*
X13200000Y16785000D01*
X11200000Y14000000D02*
X13200000Y16000000D01*
D17*
G04 #@! TO.N,IO0*
X7600000Y13600000D03*
X8000000Y44450000D03*
D18*
X7600000Y13600000D02*
X6075000Y13600000D01*
X8000000Y44450000D02*
X1270000Y44450000D01*
X10602000Y44450000D02*
X11296000Y43756000D01*
X12072000Y43756000D02*
X13035000Y43756000D01*
X8000000Y44450000D02*
X10602000Y44450000D01*
X13035000Y43756000D02*
X13578000Y43213000D01*
X12072000Y43756000D02*
X11296000Y43756000D01*
X6075000Y13600000D02*
X5800000Y13875000D01*
D17*
G04 #@! TO.N,IO33*
X18000000Y9200000D03*
D18*
X19600000Y8875000D02*
X18325000Y8875000D01*
X18325000Y8875000D02*
X18000000Y9200000D01*
D17*
G04 #@! TO.N,VCC*
X18034000Y2286000D03*
X18542000Y39116000D03*
D19*
X18034000Y2286000D02*
X18445000Y1875000D01*
X16510000Y39712000D02*
X17526000Y39712000D01*
X17946000Y39712000D02*
X18542000Y39116000D01*
X17526000Y41643000D02*
X17793000Y41910000D01*
X13578000Y41663000D02*
X15494000Y39747000D01*
X15494000Y39747000D02*
X15494000Y39712000D01*
X18445000Y1875000D02*
X19600000Y1875000D01*
X17793000Y41910000D02*
X24130000Y41910000D01*
X17526000Y39712000D02*
X17946000Y39712000D01*
X17526000Y41643000D02*
X17526000Y39712000D01*
X15494000Y39747000D02*
X15529000Y39712000D01*
X16510000Y39712000D02*
X15529000Y39712000D01*
D17*
G04 #@! TO.N,IO18*
X15494000Y1778000D03*
D18*
X15494000Y1778000D02*
X8397000Y8875000D01*
X8397000Y8875000D02*
X5800000Y8875000D01*
D17*
G04 #@! TO.N,IO14*
X16000000Y12800000D03*
X5600000Y27200000D03*
D18*
X19525000Y12800000D02*
X19600000Y12875000D01*
X16000000Y12800000D02*
X19525000Y12800000D01*
X12660000Y36935000D02*
X11200000Y35475000D01*
X11200000Y35475000D02*
X11200000Y33600000D01*
X10400000Y32800000D02*
X10400000Y29200000D01*
X11200000Y33600000D02*
X10400000Y32800000D01*
X8400000Y27200000D02*
X5600000Y27200000D01*
X8400000Y27200000D02*
X10400000Y29200000D01*
D17*
G04 #@! TO.N,IO5*
X7600000Y10000000D03*
D18*
X7475000Y9875000D02*
X5800000Y9875000D01*
X7600000Y10000000D02*
X7475000Y9875000D01*
G04 #@! TO.N,IO36*
X22800000Y7075000D02*
X22800000Y30210000D01*
X22800000Y5130000D02*
X22800000Y7125000D01*
X22800000Y30210000D02*
X22800000Y30420000D01*
X22800000Y7125000D02*
X22800000Y7075000D01*
X19600000Y3875000D02*
X21545000Y3875000D01*
X22800000Y30420000D02*
X24130000Y31750000D01*
X21545000Y3875000D02*
X22800000Y5130000D01*
D17*
G04 #@! TO.N,IO9*
X15200000Y15200000D03*
X6000000Y20800000D03*
D18*
X15200000Y16785000D02*
X15200000Y15200000D01*
D17*
G04 #@! TO.N,IO2*
X6000000Y16000000D03*
D18*
X5800000Y15800000D02*
X5800000Y14875000D01*
X6000000Y16000000D02*
X5800000Y15800000D01*
D17*
G04 #@! TO.N,SCLK*
X3600000Y18000000D03*
X10000000Y18800000D03*
D18*
X11600000Y18800000D02*
X10000000Y18800000D01*
X11600000Y18800000D02*
X12200000Y18200000D01*
X12200000Y18200000D02*
X12200000Y16785000D01*
D17*
G04 #@! TO.N,SIO1*
X9600000Y14800000D03*
D18*
X10000000Y15200000D02*
X10000000Y16585000D01*
X10000000Y16585000D02*
X10200000Y16785000D01*
X10000000Y15200000D02*
X9600000Y14800000D01*
D17*
G04 #@! TO.N,IO25*
X18000000Y10000000D03*
D18*
X19600000Y9875000D02*
X18125000Y9875000D01*
X18125000Y9875000D02*
X18000000Y10000000D01*
G04 #@! TO.N,IO12*
X17200000Y13875000D02*
X19600000Y13875000D01*
X19250000Y17325000D02*
X16775000Y14850000D01*
X10800000Y28800000D02*
X8670000Y26670000D01*
X16775000Y14300000D02*
X16775000Y14850000D01*
X19250000Y18975000D02*
X19250000Y17325000D01*
X10800000Y32535000D02*
X10800000Y28800000D01*
X12660000Y34395000D02*
X10800000Y32535000D01*
X19250000Y18975000D02*
X19250000Y22825000D01*
X8670000Y26670000D02*
X1270000Y26670000D01*
X19250000Y27805000D02*
X19250000Y22825000D01*
X12660000Y34395000D02*
X19250000Y27805000D01*
X16775000Y14300000D02*
X17200000Y13875000D01*
D17*
G04 #@! TO.N,IO3*
X7600000Y4800000D03*
D18*
X7600000Y4800000D02*
X7525000Y4875000D01*
X7525000Y4875000D02*
X5800000Y4875000D01*
D17*
G04 #@! TO.N,GND*
X16510000Y38608000D03*
D19*
X16510000Y38012000D02*
X17526000Y38012000D01*
X16510000Y38012000D02*
X15494000Y38012000D01*
X16510000Y38608000D02*
X16510000Y38012000D01*
G04 --- BOARD END --- *
G04 #@! TF.MD5,57ce3d36b129ef325fc5d29764975ea0*
M02*
